<?xml version="1.0" encoding="UTF-8" standalone="no"?>
<!DOCTYPE svg PUBLIC "-//W3C//DTD SVG 1.1//EN" "http://www.w3.org/Graphics/SVG/1.1/DTD/svg11.dtd">
<svg width="100%" height="100%" viewBox="0 0 650 999" version="1.1" xmlns="http://www.w3.org/2000/svg" xmlns:xlink="http://www.w3.org/1999/xlink" xml:space="preserve" xmlns:serif="http://www.serif.com/" style="fill-rule:evenodd;clip-rule:evenodd;stroke-linecap:round;stroke-miterlimit:8;">
    <g transform="matrix(0.983719,0,0,1.018014,-181.229333,-295.622082)">
        <path d="M838.58,314.99L838.58,1246.17C838.58,1256.54 829.87,1264.96 819.13,1264.96L209.68,1264.96C198.95,1264.96 190.23,1256.54 190.23,1246.17L190.23,314.99C190.23,304.61 198.95,296.19 209.68,296.19L819.13,296.19C829.87,296.19 838.58,304.61 838.58,314.99Z" style="fill:none;stroke:rgb(58,89,14);stroke-width:4.16px;"/>
    </g>
    <g transform="matrix(0.882347,0,0,0.948737,-73.614486,-428.309945)">
        <path d="M208.68,486.14C207.71,486.62 206.66,486.96 205.55,487.12C202.22,487.62 199.05,486.49 196.85,484.03C196.69,483.84 196.53,483.65 196.37,483.44C194.89,481.53 194.31,479 194.78,476.52C195.45,472.96 197.68,470.4 200.73,469.67C203.55,468.99 206.53,470.05 208.3,472.36C209.33,473.69 209.74,475.44 209.43,477.14C208.98,479.67 207.4,481.5 205.22,482.03C203.19,482.53 201.05,481.77 199.78,480.11C198.26,478.13 198.63,475.28 200.6,473.75C201.27,473.24 202.23,473.36 202.75,474.03C203.27,474.7 203.14,475.67 202.47,476.18C201.84,476.67 201.72,477.6 202.21,478.24C202.75,478.94 203.64,479.26 204.49,479.05C205.48,478.81 206.18,477.92 206.41,476.61C206.57,475.74 206.37,474.88 205.87,474.23C204.83,472.88 203.09,472.26 201.44,472.65C199.58,473.1 198.24,474.71 197.79,477.08C197.48,478.73 197.84,480.33 198.8,481.57C198.91,481.71 199.02,481.85 199.14,481.98C200.64,483.67 202.81,484.43 205.1,484.09C207.55,483.72 209.62,482.17 210.64,479.94L210.76,479.68C211.64,477.9 212.27,475.13 212.41,472.42C212.83,463.67 218.35,460.6 219.2,460.21C220.55,459.42 222.15,459.18 223.7,459.57C225.26,459.96 226.58,460.93 227.41,462.32C228.86,464.73 228.1,467.88 225.72,469.35C224.68,469.99 223.35,470.14 222.15,469.76C220.43,469.23 219.29,467.94 219.09,466.34C218.95,465.15 219.37,463.99 220.18,463.17C219.06,463.85 215.77,466.38 215.47,472.58C215.3,475.73 214.58,478.87 213.53,481L213.43,481.22C212.43,483.39 210.75,485.1 208.68,486.14ZM222.21,462.45C222.53,462.57 222.83,462.79 223.02,463.11C223.46,463.83 223.23,464.78 222.5,465.22C222.24,465.37 222.1,465.67 222.14,465.97C222.18,466.36 222.52,466.67 223.07,466.84C223.43,466.95 223.8,466.92 224.11,466.74C225.07,466.15 225.38,464.87 224.79,463.9C224.38,463.22 223.73,462.74 222.95,462.54C222.71,462.48 222.46,462.45 222.21,462.45Z" style="fill:rgb(58,89,14);fill-rule:nonzero;"/>
        <path d="M114.2,578.29L113.97,578.39C111.85,579.44 108.7,580.17 105.55,580.34C99.36,580.63 96.83,583.93 96.14,585.05C96.96,584.23 98.13,583.82 99.31,583.96C100.92,584.15 102.2,585.3 102.74,587.02C103.12,588.21 102.97,589.54 102.32,590.58C100.86,592.97 97.7,593.73 95.29,592.28C93.91,591.45 92.93,590.13 92.54,588.56C92.16,587.02 92.39,585.42 93.19,584.06C93.57,583.22 96.65,577.69 105.4,577.28C108.11,577.13 110.87,576.5 112.66,575.63L112.92,575.51C115.15,574.48 116.7,572.41 117.07,569.96C117.41,567.68 116.64,565.51 114.96,564.01C114.83,563.89 114.69,563.77 114.55,563.66C113.3,562.71 111.71,562.35 110.06,562.66C107.69,563.11 106.08,564.44 105.63,566.31C105.23,567.96 105.85,569.7 107.21,570.74C107.85,571.24 108.72,571.43 109.58,571.28C110.9,571.04 111.79,570.34 112.03,569.36C112.24,568.51 111.92,567.62 111.22,567.08C110.58,566.59 109.65,566.7 109.16,567.34C108.64,568.01 107.68,568.13 107.01,567.62C106.34,567.1 106.21,566.13 106.73,565.47C108.25,563.5 111.1,563.12 113.09,564.65C114.75,565.92 115.5,568.06 115.01,570.09C114.48,572.27 112.65,573.85 110.12,574.3C108.41,574.6 106.67,574.19 105.34,573.17C103.03,571.4 101.97,568.42 102.65,565.6C103.38,562.54 105.94,560.32 109.49,559.65C111.98,559.18 114.5,559.76 116.42,561.24C116.62,561.39 116.82,561.56 117,561.72C119.47,563.92 120.6,567.09 120.1,570.42C119.93,571.53 119.6,572.58 119.11,573.55C118.08,575.62 116.36,577.3 114.2,578.29ZM95.52,587.82C95.71,588.59 96.19,589.24 96.87,589.65C97.85,590.24 99.12,589.93 99.71,588.97C99.9,588.66 99.92,588.29 99.81,587.93C99.64,587.38 99.33,587.05 98.94,587C98.64,586.96 98.34,587.11 98.19,587.36C97.75,588.09 96.81,588.32 96.08,587.88C95.76,587.69 95.54,587.4 95.43,587.07C95.43,587.32 95.45,587.57 95.52,587.82Z" style="fill:rgb(58,89,14);fill-rule:nonzero;"/>
        <path d="M144.04,501.03C142.85,501.47 141.59,501.73 140.28,501.78C136.34,501.93 132.8,500.21 130.56,497.06C130.39,496.82 130.23,496.58 130.07,496.32C128.6,493.9 128.25,490.89 129.11,488.06C130.34,484.01 133.26,481.32 136.9,480.86C140.28,480.44 143.6,482.05 145.37,484.96C146.39,486.64 146.64,488.72 146.07,490.67C145.22,493.55 143.15,495.48 140.54,495.81C138.12,496.13 135.73,494.98 134.46,492.88C132.95,490.38 133.74,487.11 136.23,485.6C137.07,485.08 138.18,485.35 138.7,486.19C139.21,487.04 138.95,488.14 138.1,488.66C137.29,489.15 137.04,490.21 137.53,491.02C138.07,491.9 139.06,492.39 140.08,492.25C141.25,492.1 142.18,491.15 142.63,489.65C142.92,488.67 142.8,487.64 142.3,486.82C141.27,485.11 139.32,484.17 137.35,484.42C135.12,484.7 133.36,486.41 132.54,489.11C131.97,490.99 132.18,492.89 133.13,494.45C133.24,494.63 133.36,494.81 133.48,494.98C135.01,497.13 137.43,498.3 140.14,498.19C143.03,498.08 145.64,496.54 147.12,494.08L147.29,493.79C148.54,491.82 149.62,488.69 150.14,485.56C151.74,475.43 158.56,472.57 159.6,472.22C161.27,471.47 163.17,471.4 164.91,472.05C166.68,472.7 168.09,474.01 168.88,475.72C170.26,478.71 168.97,482.28 166.01,483.69C164.72,484.3 163.15,484.3 161.81,483.71C159.88,482.87 158.71,481.23 158.69,479.33C158.67,477.94 159.31,476.64 160.36,475.79C158.97,476.44 154.81,478.96 153.68,486.13C153.08,489.77 151.83,493.34 150.34,495.67L150.19,495.92C148.76,498.31 146.59,500.09 144.04,501.03ZM162.81,475.22C163.18,475.39 163.49,475.69 163.67,476.08C164.09,476.98 163.7,478.05 162.8,478.47C162.48,478.62 162.28,478.94 162.28,479.3C162.28,479.75 162.63,480.16 163.25,480.43C163.65,480.6 164.09,480.62 164.47,480.44C165.67,479.88 166.18,478.44 165.63,477.23C165.23,476.38 164.54,475.74 163.67,475.42C163.39,475.31 163.1,475.25 162.81,475.22Z" style="fill:rgb(58,89,14);fill-rule:nonzero;"/>
        <path d="M128.82,516.19L128.56,516.33C126.17,517.8 122.54,519.01 118.84,519.56C111.56,520.59 108.93,524.76 108.25,526.16C109.13,525.1 110.46,524.48 111.87,524.52C113.79,524.57 115.43,525.78 116.26,527.75C116.83,529.12 116.8,530.71 116.16,532.01C114.69,534.99 111.05,536.23 108.05,534.79C106.32,533.95 105.02,532.5 104.39,530.7C103.76,528.92 103.87,527.01 104.65,525.32C105.02,524.28 108.04,517.42 118.32,515.96C121.5,515.49 124.7,514.45 126.71,513.21L127,513.04C129.52,511.59 131.12,508.97 131.29,506.04C131.44,503.3 130.29,500.82 128.14,499.24C127.97,499.12 127.8,499 127.61,498.88C126.04,497.89 124.12,497.64 122.21,498.19C119.46,498.98 117.71,500.73 117.38,502.99C117.09,504.98 118.02,506.97 119.73,508.05C120.55,508.56 121.59,508.7 122.6,508.42C124.12,508 125.1,507.07 125.27,505.88C125.42,504.86 124.95,503.84 124.07,503.28C123.25,502.77 122.17,503.01 121.66,503.82C121.13,504.67 120,504.92 119.16,504.38C118.31,503.84 118.05,502.72 118.59,501.88C120.17,499.38 123.49,498.63 126,500.2C128.1,501.52 129.23,503.96 128.87,506.41C128.48,509.05 126.5,511.11 123.56,511.92C121.58,512.47 119.48,512.18 117.8,511.12C114.87,509.28 113.3,505.89 113.78,502.48C114.31,498.79 117.08,495.88 121.21,494.7C124.09,493.87 127.13,494.28 129.56,495.81C129.81,495.97 130.06,496.14 130.3,496.32C133.45,498.64 135.14,502.25 134.92,506.24C134.84,507.57 134.56,508.85 134.1,510.04C133.1,512.6 131.26,514.78 128.82,516.19ZM107.82,529.5C108.13,530.38 108.77,531.1 109.62,531.51C110.84,532.1 112.31,531.6 112.9,530.4C113.08,530.01 113.07,529.57 112.9,529.16C112.64,528.52 112.24,528.17 111.77,528.15C111.41,528.14 111.08,528.35 110.92,528.67C110.49,529.57 109.4,529.95 108.49,529.51C108.09,529.32 107.8,529 107.63,528.62C107.65,528.92 107.72,529.21 107.82,529.5Z" style="fill:rgb(58,89,14);fill-rule:nonzero;"/>
        <path d="M246.68,471.81C243.96,472.31 241.22,472.76 238.5,473.31L230.39,475.26C229.71,475.4 229.05,475.61 228.38,475.81L226.39,476.42L222.4,477.65L220.4,478.27L218.45,478.99L214.53,480.44C204.11,484.38 194.14,489.49 184.71,495.43C175.3,501.42 166.49,508.35 158.36,515.98C150.28,523.67 142.86,532.06 136.27,541.04C129.72,550.05 123.87,559.58 119.04,569.6C114.16,579.59 110.23,590.05 107.42,600.79C107.25,601.47 107.05,602.13 106.9,602.81L106.46,604.84L105.57,608.91L104.87,613.01C104.63,614.38 104.4,615.74 104.27,617.12C103.53,622.62 103.35,628.17 103.48,633.68L103.78,629.55C103.84,628.87 103.85,628.18 103.95,627.5L104.22,625.45C104.4,624.09 104.52,622.72 104.75,621.37L105.48,617.31C105.69,615.96 106.02,614.62 106.32,613.29L107.24,609.28L108.33,605.32L108.88,603.34C109.06,602.68 109.3,602.04 109.5,601.38L110.76,597.47C111.14,596.16 111.67,594.9 112.13,593.61L113.55,589.76L115.14,585.98C115.68,584.72 116.16,583.44 116.75,582.21L118.46,578.49L119.32,576.63C119.61,576.01 119.94,575.41 120.24,574.8L122.11,571.15C127.21,561.5 133.02,552.22 139.63,543.53C146.19,534.83 153.45,526.65 161.4,519.2C169.29,511.69 177.86,504.91 186.98,498.95C189.21,497.38 191.58,496.04 193.91,494.62C195.08,493.94 196.23,493.19 197.42,492.55L201.03,490.63L204.64,488.71L208.35,486.98L212.04,485.24L212.97,484.8L213.92,484.41L215.81,483.64C225.88,479.47 236.34,476.11 247.08,473.94C257.8,471.67 268.74,470.42 279.77,469.84C268.74,469.44 257.65,470.11 246.68,471.81Z" style="fill:rgb(58,89,14);fill-rule:nonzero;"/>
        <g>
            <path d="M176.27,477.55L176.28,477.55L176.27,477.55Z" style="fill:rgb(58,89,14);fill-rule:nonzero;"/>
            <path d="M193.57,476.83L193.57,476.83L193.57,476.83L193.57,476.83Z" style="fill:rgb(58,89,14);fill-rule:nonzero;"/>
            <path d="M193.57,476.83C193.37,476.48 193.15,476.14 192.92,475.8C190.77,472.6 187.25,470.46 183.26,469.92C182.47,469.81 181.69,469.76 180.92,469.76C176.25,469.75 172.21,471.77 169.94,475.42C168.77,477.3 168.19,479.44 168.19,481.57C168.19,483.86 168.86,486.15 170.2,488.12C171.66,490.29 174.05,491.75 176.73,492.14C177.31,492.23 177.88,492.27 178.44,492.27C181.64,492.28 184.45,490.88 186.04,488.35C186.88,487.02 187.29,485.51 187.29,484.01C187.29,482.41 186.82,480.81 185.88,479.42C184.54,477.44 182.35,476.37 180.12,476.37C178.8,476.37 177.45,476.75 176.27,477.55C175.72,477.92 175.42,478.54 175.42,479.16C175.42,479.53 175.52,479.91 175.75,480.24C176.12,480.8 176.74,481.1 177.36,481.1C177.73,481.1 178.11,480.99 178.44,480.77C178.96,480.42 179.54,480.25 180.13,480.25C181.11,480.26 182.07,480.73 182.66,481.6C183.16,482.33 183.4,483.17 183.4,484.01C183.4,484.8 183.19,485.59 182.75,486.28C182.32,486.96 181.74,487.48 181.03,487.83C180.31,488.19 179.45,488.39 178.47,488.39C178.09,488.39 177.7,488.36 177.29,488.3C175.67,488.06 174.26,487.19 173.42,485.94C172.52,484.62 172.08,483.1 172.08,481.57C172.08,480.14 172.47,478.72 173.24,477.47C174.01,476.23 175.06,475.28 176.35,474.63C177.63,473.98 179.16,473.64 180.87,473.64C181.47,473.64 182.1,473.68 182.74,473.77C185.7,474.17 188.15,475.66 189.7,477.97L189.7,477.97C189.88,478.23 190.04,478.49 190.2,478.77L190.2,478.77C191.22,480.54 191.73,482.47 191.73,484.43C191.73,486.24 191.29,488.08 190.4,489.83C188.44,493.68 184.73,496.25 180.48,496.72L179.97,496.77L179.96,496.77L179.95,496.77C179.14,496.88 178.22,496.94 177.23,496.94C174.31,496.94 170.78,496.45 167.48,495.55L167.48,495.55C164.54,494.72 161.89,494.39 159.51,494.39C155.09,494.39 151.68,495.55 149.29,496.79C146.92,498.03 145.57,499.34 145.22,499.7C145.06,499.84 144.91,499.99 144.76,500.14L145.24,500.62L144.76,500.14C143.18,501.72 142.22,503.8 142.04,506.05C142.03,506.3 142.02,506.54 142.02,506.79C142.01,509.03 142.81,511.19 144.28,512.91C145.85,514.75 148.09,515.7 150.34,515.7C152.13,515.7 153.94,515.09 155.41,513.86L155.41,513.86C156.84,512.65 157.69,510.82 157.72,508.91L157.72,508.91L157.72,508.76C157.72,507.44 157.41,506.22 156.82,505.2C156.23,504.18 155.36,503.36 154.27,502.84C153.48,502.47 152.64,502.29 151.8,502.29C150.46,502.29 149.12,502.76 148.06,503.67L148.05,503.67C147.61,504.06 147.37,504.6 147.37,505.15C147.37,505.6 147.53,506.05 147.84,506.41C148.22,506.86 148.77,507.09 149.32,507.09C149.76,507.09 150.22,506.94 150.58,506.63L150.58,506.62C150.92,506.33 151.36,506.18 151.8,506.18C152.08,506.18 152.35,506.24 152.61,506.36C152.99,506.54 153.28,506.82 153.5,507.22C153.71,507.61 153.84,508.13 153.84,508.76L153.84,508.84L153.84,508.84C153.82,509.65 153.46,510.42 152.91,510.88C152.16,511.51 151.25,511.81 150.34,511.81C149.18,511.81 148.04,511.33 147.24,510.39C146.37,509.37 145.9,508.11 145.9,506.79C145.9,506.64 145.91,506.5 145.92,506.35C146.03,504.87 146.71,503.54 147.83,502.58L147.85,502.57L147.98,502.45L147.99,502.43C148.15,502.27 151.93,498.28 159.51,498.28C161.54,498.28 163.85,498.56 166.44,499.29L166.44,499.29C170.12,500.3 173.92,500.83 177.21,500.83C178.35,500.83 179.43,500.77 180.42,500.63L180.42,500.63L180.9,500.58C186.47,499.97 191.32,496.61 193.87,491.59C195.04,489.29 195.62,486.85 195.62,484.42C195.62,481.8 194.93,479.2 193.57,476.83Z" style="fill:rgb(58,89,14);fill-rule:nonzero;"/>
        </g>
        <g>
            <path d="M114.32,541.67L114.33,541.67L114.32,541.67Z" style="fill:rgb(58,89,14);fill-rule:nonzero;"/>
            <path d="M111.62,542.2L111.63,542.2L111.62,542.2Z" style="fill:rgb(58,89,14);fill-rule:nonzero;"/>
            <path d="M146.99,510.2C145.27,508.73 143.11,507.93 140.87,507.94C140.62,507.94 140.38,507.94 140.13,507.96C137.88,508.14 135.8,509.1 134.22,510.68L134.7,511.16L134.22,510.68C134.07,510.83 133.92,510.98 133.78,511.14C133.41,511.5 132.1,512.85 130.87,515.22C129.62,517.6 128.46,521.01 128.46,525.43C128.46,527.8 128.8,530.46 129.62,533.4L129.62,533.39C130.53,536.69 131.02,540.22 131.02,543.16C131.02,544.15 130.96,545.08 130.85,545.91L130.85,545.92L130.79,546.41L130.79,546.4C130.33,550.66 127.76,554.36 123.91,556.32C122.16,557.21 120.32,557.65 118.51,557.65C116.55,557.65 114.62,557.14 112.84,556.12C112.57,555.96 112.31,555.8 112.05,555.62L112.05,555.62C109.74,554.07 108.25,551.62 107.85,548.66C107.76,548.02 107.72,547.4 107.72,546.8C107.72,545.09 108.06,543.56 108.71,542.28C109.36,540.99 110.31,539.94 111.55,539.16C112.8,538.39 114.22,538 115.65,538C117.17,538 118.7,538.45 120.02,539.34C121.27,540.18 122.14,541.59 122.38,543.21C122.43,543.62 122.46,544.01 122.46,544.39C122.46,545.37 122.27,546.23 121.91,546.95C121.56,547.67 121.04,548.24 120.36,548.67C119.66,549.11 118.88,549.32 118.09,549.32C117.25,549.32 116.41,549.08 115.68,548.59C114.8,547.99 114.33,547.03 114.33,546.05C114.33,545.47 114.5,544.88 114.85,544.37L114.85,544.36C115.07,544.03 115.18,543.65 115.18,543.28C115.18,542.66 114.88,542.04 114.32,541.67C113.99,541.44 113.61,541.34 113.24,541.34C112.61,541.34 112,541.64 111.62,542.2C110.83,543.37 110.45,544.72 110.45,546.05C110.45,548.27 111.52,550.47 113.5,551.81C114.88,552.74 116.49,553.21 118.09,553.21C119.59,553.21 121.1,552.8 122.42,551.97C124.96,550.38 126.35,547.57 126.35,544.36C126.35,543.8 126.31,543.23 126.22,542.65C125.83,539.97 124.37,537.59 122.2,536.12C120.22,534.78 117.93,534.11 115.65,534.11C113.51,534.11 111.38,534.7 109.5,535.86C105.85,538.13 103.83,542.18 103.83,546.85C103.83,547.61 103.89,548.39 103.99,549.18C104.54,553.17 106.67,556.69 109.87,558.84C110.21,559.07 110.56,559.29 110.91,559.49L110.91,559.49C113.28,560.85 115.88,561.54 118.5,561.54C120.93,561.54 123.37,560.95 125.67,559.78C130.69,557.23 134.05,552.38 134.66,546.82L134.7,546.38L134.7,546.38C134.84,545.37 134.91,544.28 134.91,543.12C134.91,539.83 134.37,536.03 133.37,532.35L133.37,532.35C132.64,529.77 132.36,527.47 132.36,525.44C132.36,521.64 133.36,518.81 134.38,516.89C134.89,515.93 135.4,515.21 135.8,514.71C135.99,514.46 136.16,514.27 136.28,514.14C136.41,514.01 136.48,513.94 136.51,513.91L136.63,513.79L136.65,513.77L136.66,513.75C137.62,512.63 138.95,511.95 140.43,511.84L140.43,511.84C140.57,511.82 140.72,511.82 140.86,511.82C142.19,511.82 143.45,512.28 144.47,513.16C145.41,513.96 145.89,515.1 145.89,516.25C145.89,517.17 145.59,518.08 144.96,518.83C144.51,519.37 143.73,519.74 142.92,519.76L142.93,519.76L142.84,519.76C142.21,519.76 141.69,519.63 141.3,519.42C140.9,519.2 140.62,518.91 140.44,518.53C140.32,518.27 140.26,517.99 140.26,517.72C140.26,517.28 140.41,516.84 140.71,516.5L140.71,516.5C141.02,516.14 141.17,515.68 141.17,515.24C141.17,514.69 140.94,514.14 140.49,513.76C140.13,513.45 139.67,513.3 139.24,513.3C138.69,513.3 138.14,513.53 137.75,513.97L137.75,513.98C136.84,515.04 136.37,516.37 136.37,517.72C136.37,518.56 136.56,519.4 136.93,520.19C137.44,521.28 138.26,522.15 139.28,522.74C140.31,523.33 141.52,523.64 142.84,523.64L142.99,523.64C144.9,523.61 146.73,522.76 147.94,521.33L147.94,521.33C149.17,519.86 149.78,518.05 149.78,516.26C149.78,514.01 148.83,511.77 146.99,510.2Z" style="fill:rgb(58,89,14);fill-rule:nonzero;"/>
        </g>
        <g>
            <path d="M126.25,485.85C126.25,484.84 125.95,483.83 125.34,482.93C123.76,480.59 121.06,479.06 118.73,478.06C116.41,477.06 114.44,476.62 114.23,476.57C114.1,476.54 113.97,476.53 113.84,476.53C113.29,476.53 112.81,476.77 112.46,477.12C112.11,477.47 111.87,477.95 111.87,478.5C111.87,478.63 111.88,478.76 111.91,478.89L111.91,478.88C111.95,479.07 112.4,481.05 113.39,483.39C114.4,485.72 115.92,488.41 118.27,490C119.17,490.61 120.19,490.91 121.19,490.91C122.49,490.92 123.77,490.4 124.75,489.41L124.27,488.93L124.75,489.41C125.74,488.42 126.26,487.15 126.25,485.85ZM120.44,486.77L120.43,486.77C119.46,486.12 118.59,484.99 117.89,483.75C117.47,483 117.11,482.22 116.81,481.47C117.6,481.79 118.42,482.17 119.18,482.61C120.41,483.31 121.5,484.17 122.11,485.09C122.31,485.39 122.36,485.62 122.37,485.83C122.37,486.15 122.22,486.45 122,486.66C121.79,486.88 121.49,487.03 121.18,487.02C120.97,487.02 120.73,486.97 120.44,486.77Z" style="fill:rgb(58,89,14);fill-rule:nonzero;"/>
            <path d="M114.22,476.57L114.23,476.57L114.22,476.57Z" style="fill:rgb(58,89,14);fill-rule:nonzero;"/>
        </g>
    </g>
    <g transform="matrix(-0.882347,0,0,0.948737,723.310574,-428.309945)">
        <path d="M208.68,486.14C207.71,486.62 206.66,486.96 205.55,487.12C202.22,487.62 199.05,486.49 196.85,484.03C196.69,483.84 196.53,483.65 196.37,483.44C194.89,481.53 194.31,479 194.78,476.52C195.45,472.96 197.68,470.4 200.73,469.67C203.55,468.99 206.53,470.05 208.3,472.36C209.33,473.69 209.74,475.44 209.43,477.14C208.98,479.67 207.4,481.5 205.22,482.03C203.19,482.53 201.05,481.77 199.78,480.11C198.26,478.13 198.63,475.28 200.6,473.75C201.27,473.24 202.23,473.36 202.75,474.03C203.27,474.7 203.14,475.67 202.47,476.18C201.84,476.67 201.72,477.6 202.21,478.24C202.75,478.94 203.64,479.26 204.49,479.05C205.48,478.81 206.18,477.92 206.41,476.61C206.57,475.74 206.37,474.88 205.87,474.23C204.83,472.88 203.09,472.26 201.44,472.65C199.58,473.1 198.24,474.71 197.79,477.08C197.48,478.73 197.84,480.33 198.8,481.57C198.91,481.71 199.02,481.85 199.14,481.98C200.64,483.67 202.81,484.43 205.1,484.09C207.55,483.72 209.62,482.17 210.64,479.94L210.76,479.68C211.64,477.9 212.27,475.13 212.41,472.42C212.83,463.67 218.35,460.6 219.2,460.21C220.55,459.42 222.15,459.18 223.7,459.57C225.26,459.96 226.58,460.93 227.41,462.32C228.86,464.73 228.1,467.88 225.72,469.35C224.68,469.99 223.35,470.14 222.15,469.76C220.43,469.23 219.29,467.94 219.09,466.34C218.95,465.15 219.37,463.99 220.18,463.17C219.06,463.85 215.77,466.38 215.47,472.58C215.3,475.73 214.58,478.87 213.53,481L213.43,481.22C212.43,483.39 210.75,485.1 208.68,486.14ZM222.21,462.45C222.53,462.57 222.83,462.79 223.02,463.11C223.46,463.83 223.23,464.78 222.5,465.22C222.24,465.37 222.1,465.67 222.14,465.97C222.18,466.36 222.52,466.67 223.07,466.84C223.43,466.95 223.8,466.92 224.11,466.74C225.07,466.15 225.38,464.87 224.79,463.9C224.38,463.22 223.73,462.74 222.95,462.54C222.71,462.48 222.46,462.45 222.21,462.45Z" style="fill:rgb(58,89,14);fill-rule:nonzero;"/>
        <path d="M114.2,578.29L113.97,578.39C111.85,579.44 108.7,580.17 105.55,580.34C99.36,580.63 96.83,583.93 96.14,585.05C96.96,584.23 98.13,583.82 99.31,583.96C100.92,584.15 102.2,585.3 102.74,587.02C103.12,588.21 102.97,589.54 102.32,590.58C100.86,592.97 97.7,593.73 95.29,592.28C93.91,591.45 92.93,590.13 92.54,588.56C92.16,587.02 92.39,585.42 93.19,584.06C93.57,583.22 96.65,577.69 105.4,577.28C108.11,577.13 110.87,576.5 112.66,575.63L112.92,575.51C115.15,574.48 116.7,572.41 117.07,569.96C117.41,567.68 116.64,565.51 114.96,564.01C114.83,563.89 114.69,563.77 114.55,563.66C113.3,562.71 111.71,562.35 110.06,562.66C107.69,563.11 106.08,564.44 105.63,566.31C105.23,567.96 105.85,569.7 107.21,570.74C107.85,571.24 108.72,571.43 109.58,571.28C110.9,571.04 111.79,570.34 112.03,569.36C112.24,568.51 111.92,567.62 111.22,567.08C110.58,566.59 109.65,566.7 109.16,567.34C108.64,568.01 107.68,568.13 107.01,567.62C106.34,567.1 106.21,566.13 106.73,565.47C108.25,563.5 111.1,563.12 113.09,564.65C114.75,565.92 115.5,568.06 115.01,570.09C114.48,572.27 112.65,573.85 110.12,574.3C108.41,574.6 106.67,574.19 105.34,573.17C103.03,571.4 101.97,568.42 102.65,565.6C103.38,562.54 105.94,560.32 109.49,559.65C111.98,559.18 114.5,559.76 116.42,561.24C116.62,561.39 116.82,561.56 117,561.72C119.47,563.92 120.6,567.09 120.1,570.42C119.93,571.53 119.6,572.58 119.11,573.55C118.08,575.62 116.36,577.3 114.2,578.29ZM95.52,587.82C95.71,588.59 96.19,589.24 96.87,589.65C97.85,590.24 99.12,589.93 99.71,588.97C99.9,588.66 99.92,588.29 99.81,587.93C99.64,587.38 99.33,587.05 98.94,587C98.64,586.96 98.34,587.11 98.19,587.36C97.75,588.09 96.81,588.32 96.08,587.88C95.76,587.69 95.54,587.4 95.43,587.07C95.43,587.32 95.45,587.57 95.52,587.82Z" style="fill:rgb(58,89,14);fill-rule:nonzero;"/>
        <path d="M144.04,501.03C142.85,501.47 141.59,501.73 140.28,501.78C136.34,501.93 132.8,500.21 130.56,497.06C130.39,496.82 130.23,496.58 130.07,496.32C128.6,493.9 128.25,490.89 129.11,488.06C130.34,484.01 133.26,481.32 136.9,480.86C140.28,480.44 143.6,482.05 145.37,484.96C146.39,486.64 146.64,488.72 146.07,490.67C145.22,493.55 143.15,495.48 140.54,495.81C138.12,496.13 135.73,494.98 134.46,492.88C132.95,490.38 133.74,487.11 136.23,485.6C137.07,485.08 138.18,485.35 138.7,486.19C139.21,487.04 138.95,488.14 138.1,488.66C137.29,489.15 137.04,490.21 137.53,491.02C138.07,491.9 139.06,492.39 140.08,492.25C141.25,492.1 142.18,491.15 142.63,489.65C142.92,488.67 142.8,487.64 142.3,486.82C141.27,485.11 139.32,484.17 137.35,484.42C135.12,484.7 133.36,486.41 132.54,489.11C131.97,490.99 132.18,492.89 133.13,494.45C133.24,494.63 133.36,494.81 133.48,494.98C135.01,497.13 137.43,498.3 140.14,498.19C143.03,498.08 145.64,496.54 147.12,494.08L147.29,493.79C148.54,491.82 149.62,488.69 150.14,485.56C151.74,475.43 158.56,472.57 159.6,472.22C161.27,471.47 163.17,471.4 164.91,472.05C166.68,472.7 168.09,474.01 168.88,475.72C170.26,478.71 168.97,482.28 166.01,483.69C164.72,484.3 163.15,484.3 161.81,483.71C159.88,482.87 158.71,481.23 158.69,479.33C158.67,477.94 159.31,476.64 160.36,475.79C158.97,476.44 154.81,478.96 153.68,486.13C153.08,489.77 151.83,493.34 150.34,495.67L150.19,495.92C148.76,498.31 146.59,500.09 144.04,501.03ZM162.81,475.22C163.18,475.39 163.49,475.69 163.67,476.08C164.09,476.98 163.7,478.05 162.8,478.47C162.48,478.62 162.28,478.94 162.28,479.3C162.28,479.75 162.63,480.16 163.25,480.43C163.65,480.6 164.09,480.62 164.47,480.44C165.67,479.88 166.18,478.44 165.63,477.23C165.23,476.38 164.54,475.74 163.67,475.42C163.39,475.31 163.1,475.25 162.81,475.22Z" style="fill:rgb(58,89,14);fill-rule:nonzero;"/>
        <path d="M128.82,516.19L128.56,516.33C126.17,517.8 122.54,519.01 118.84,519.56C111.56,520.59 108.93,524.76 108.25,526.16C109.13,525.1 110.46,524.48 111.87,524.52C113.79,524.57 115.43,525.78 116.26,527.75C116.83,529.12 116.8,530.71 116.16,532.01C114.69,534.99 111.05,536.23 108.05,534.79C106.32,533.95 105.02,532.5 104.39,530.7C103.76,528.92 103.87,527.01 104.65,525.32C105.02,524.28 108.04,517.42 118.32,515.96C121.5,515.49 124.7,514.45 126.71,513.21L127,513.04C129.52,511.59 131.12,508.97 131.29,506.04C131.44,503.3 130.29,500.82 128.14,499.24C127.97,499.12 127.8,499 127.61,498.88C126.04,497.89 124.12,497.64 122.21,498.19C119.46,498.98 117.71,500.73 117.38,502.99C117.09,504.98 118.02,506.97 119.73,508.05C120.55,508.56 121.59,508.7 122.6,508.42C124.12,508 125.1,507.07 125.27,505.88C125.42,504.86 124.95,503.84 124.07,503.28C123.25,502.77 122.17,503.01 121.66,503.82C121.13,504.67 120,504.92 119.16,504.38C118.31,503.84 118.05,502.72 118.59,501.88C120.17,499.38 123.49,498.63 126,500.2C128.1,501.52 129.23,503.96 128.87,506.41C128.48,509.05 126.5,511.11 123.56,511.92C121.58,512.47 119.48,512.18 117.8,511.12C114.87,509.28 113.3,505.89 113.78,502.48C114.31,498.79 117.08,495.88 121.21,494.7C124.09,493.87 127.13,494.28 129.56,495.81C129.81,495.97 130.06,496.14 130.3,496.32C133.45,498.64 135.14,502.25 134.92,506.24C134.84,507.57 134.56,508.85 134.1,510.04C133.1,512.6 131.26,514.78 128.82,516.19ZM107.82,529.5C108.13,530.38 108.77,531.1 109.62,531.51C110.84,532.1 112.31,531.6 112.9,530.4C113.08,530.01 113.07,529.57 112.9,529.16C112.64,528.52 112.24,528.17 111.77,528.15C111.41,528.14 111.08,528.35 110.92,528.67C110.49,529.57 109.4,529.95 108.49,529.51C108.09,529.32 107.8,529 107.63,528.62C107.65,528.92 107.72,529.21 107.82,529.5Z" style="fill:rgb(58,89,14);fill-rule:nonzero;"/>
        <path d="M246.68,471.81C243.96,472.31 241.22,472.76 238.5,473.31L230.39,475.26C229.71,475.4 229.05,475.61 228.38,475.81L226.39,476.42L222.4,477.65L220.4,478.27L218.45,478.99L214.53,480.44C204.11,484.38 194.14,489.49 184.71,495.43C175.3,501.42 166.49,508.35 158.36,515.98C150.28,523.67 142.86,532.06 136.27,541.04C129.72,550.05 123.87,559.58 119.04,569.6C114.16,579.59 110.23,590.05 107.42,600.79C107.25,601.47 107.05,602.13 106.9,602.81L106.46,604.84L105.57,608.91L104.87,613.01C104.63,614.38 104.4,615.74 104.27,617.12C103.53,622.62 103.35,628.17 103.48,633.68L103.78,629.55C103.84,628.87 103.85,628.18 103.95,627.5L104.22,625.45C104.4,624.09 104.52,622.72 104.75,621.37L105.48,617.31C105.69,615.96 106.02,614.62 106.32,613.29L107.24,609.28L108.33,605.32L108.88,603.34C109.06,602.68 109.3,602.04 109.5,601.38L110.76,597.47C111.14,596.16 111.67,594.9 112.13,593.61L113.55,589.76L115.14,585.98C115.68,584.72 116.16,583.44 116.75,582.21L118.46,578.49L119.32,576.63C119.61,576.01 119.94,575.41 120.24,574.8L122.11,571.15C127.21,561.5 133.02,552.22 139.63,543.53C146.19,534.83 153.45,526.65 161.4,519.2C169.29,511.69 177.86,504.91 186.98,498.95C189.21,497.38 191.58,496.04 193.91,494.62C195.08,493.94 196.23,493.19 197.42,492.55L201.03,490.63L204.64,488.71L208.35,486.98L212.04,485.24L212.97,484.8L213.92,484.41L215.81,483.64C225.88,479.47 236.34,476.11 247.08,473.94C257.8,471.67 268.74,470.42 279.77,469.84C268.74,469.44 257.65,470.11 246.68,471.81Z" style="fill:rgb(58,89,14);fill-rule:nonzero;"/>
        <g>
            <path d="M176.27,477.55L176.28,477.55L176.27,477.55Z" style="fill:rgb(58,89,14);fill-rule:nonzero;"/>
            <path d="M193.57,476.83L193.57,476.83L193.57,476.83L193.57,476.83Z" style="fill:rgb(58,89,14);fill-rule:nonzero;"/>
            <path d="M193.57,476.83C193.37,476.48 193.15,476.14 192.92,475.8C190.77,472.6 187.25,470.46 183.26,469.92C182.47,469.81 181.69,469.76 180.92,469.76C176.25,469.75 172.21,471.77 169.94,475.42C168.77,477.3 168.19,479.44 168.19,481.57C168.19,483.86 168.86,486.15 170.2,488.12C171.66,490.29 174.05,491.75 176.73,492.14C177.31,492.23 177.88,492.27 178.44,492.27C181.64,492.28 184.45,490.88 186.04,488.35C186.88,487.02 187.29,485.51 187.29,484.01C187.29,482.41 186.82,480.81 185.88,479.42C184.54,477.44 182.35,476.37 180.12,476.37C178.8,476.37 177.45,476.75 176.27,477.55C175.72,477.92 175.42,478.54 175.42,479.16C175.42,479.53 175.52,479.91 175.75,480.24C176.12,480.8 176.74,481.1 177.36,481.1C177.73,481.1 178.11,480.99 178.44,480.77C178.96,480.42 179.54,480.25 180.13,480.25C181.11,480.26 182.07,480.73 182.66,481.6C183.16,482.33 183.4,483.17 183.4,484.01C183.4,484.8 183.19,485.59 182.75,486.28C182.32,486.96 181.74,487.48 181.03,487.83C180.31,488.19 179.45,488.39 178.47,488.39C178.09,488.39 177.7,488.36 177.29,488.3C175.67,488.06 174.26,487.19 173.42,485.94C172.52,484.62 172.08,483.1 172.08,481.57C172.08,480.14 172.47,478.72 173.24,477.47C174.01,476.23 175.06,475.28 176.35,474.63C177.63,473.98 179.16,473.64 180.87,473.64C181.47,473.64 182.1,473.68 182.74,473.77C185.7,474.17 188.15,475.66 189.7,477.97L189.7,477.97C189.88,478.23 190.04,478.49 190.2,478.77L190.2,478.77C191.22,480.54 191.73,482.47 191.73,484.43C191.73,486.24 191.29,488.08 190.4,489.83C188.44,493.68 184.73,496.25 180.48,496.72L179.97,496.77L179.96,496.77L179.95,496.77C179.14,496.88 178.22,496.94 177.23,496.94C174.31,496.94 170.78,496.45 167.48,495.55L167.48,495.55C164.54,494.72 161.89,494.39 159.51,494.39C155.09,494.39 151.68,495.55 149.29,496.79C146.92,498.03 145.57,499.34 145.22,499.7C145.06,499.84 144.91,499.99 144.76,500.14L145.24,500.62L144.76,500.14C143.18,501.72 142.22,503.8 142.04,506.05C142.03,506.3 142.02,506.54 142.02,506.79C142.01,509.03 142.81,511.19 144.28,512.91C145.85,514.75 148.09,515.7 150.34,515.7C152.13,515.7 153.94,515.09 155.41,513.86L155.41,513.86C156.84,512.65 157.69,510.82 157.72,508.91L157.72,508.91L157.72,508.76C157.72,507.44 157.41,506.22 156.82,505.2C156.23,504.18 155.36,503.36 154.27,502.84C153.48,502.47 152.64,502.29 151.8,502.29C150.46,502.29 149.12,502.76 148.06,503.67L148.05,503.67C147.61,504.06 147.37,504.6 147.37,505.15C147.37,505.6 147.53,506.05 147.84,506.41C148.22,506.86 148.77,507.09 149.32,507.09C149.76,507.09 150.22,506.94 150.58,506.63L150.58,506.62C150.92,506.33 151.36,506.18 151.8,506.18C152.08,506.18 152.35,506.24 152.61,506.36C152.99,506.54 153.28,506.82 153.5,507.22C153.71,507.61 153.84,508.13 153.84,508.76L153.84,508.84L153.84,508.84C153.82,509.65 153.46,510.42 152.91,510.88C152.16,511.51 151.25,511.81 150.34,511.81C149.18,511.81 148.04,511.33 147.24,510.39C146.37,509.37 145.9,508.11 145.9,506.79C145.9,506.64 145.91,506.5 145.92,506.35C146.03,504.87 146.71,503.54 147.83,502.58L147.85,502.57L147.98,502.45L147.99,502.43C148.15,502.27 151.93,498.28 159.51,498.28C161.54,498.28 163.85,498.56 166.44,499.29L166.44,499.29C170.12,500.3 173.92,500.83 177.21,500.83C178.35,500.83 179.43,500.77 180.42,500.63L180.42,500.63L180.9,500.58C186.47,499.97 191.32,496.61 193.87,491.59C195.04,489.29 195.62,486.85 195.62,484.42C195.62,481.8 194.93,479.2 193.57,476.83Z" style="fill:rgb(58,89,14);fill-rule:nonzero;"/>
        </g>
        <g>
            <path d="M114.32,541.67L114.33,541.67L114.32,541.67Z" style="fill:rgb(58,89,14);fill-rule:nonzero;"/>
            <path d="M111.62,542.2L111.63,542.2L111.62,542.2Z" style="fill:rgb(58,89,14);fill-rule:nonzero;"/>
            <path d="M146.99,510.2C145.27,508.73 143.11,507.93 140.87,507.94C140.62,507.94 140.38,507.94 140.13,507.96C137.88,508.14 135.8,509.1 134.22,510.68L134.7,511.16L134.22,510.68C134.07,510.83 133.92,510.98 133.78,511.14C133.41,511.5 132.1,512.85 130.87,515.22C129.62,517.6 128.46,521.01 128.46,525.43C128.46,527.8 128.8,530.46 129.62,533.4L129.62,533.39C130.53,536.69 131.02,540.22 131.02,543.16C131.02,544.15 130.96,545.08 130.85,545.91L130.85,545.92L130.79,546.41L130.79,546.4C130.33,550.66 127.76,554.36 123.91,556.32C122.16,557.21 120.32,557.65 118.51,557.65C116.55,557.65 114.62,557.14 112.84,556.12C112.57,555.96 112.31,555.8 112.05,555.62L112.05,555.62C109.74,554.07 108.25,551.62 107.85,548.66C107.76,548.02 107.72,547.4 107.72,546.8C107.72,545.09 108.06,543.56 108.71,542.28C109.36,540.99 110.31,539.94 111.55,539.16C112.8,538.39 114.22,538 115.65,538C117.17,538 118.7,538.45 120.02,539.34C121.27,540.18 122.14,541.59 122.38,543.21C122.43,543.62 122.46,544.01 122.46,544.39C122.46,545.37 122.27,546.23 121.91,546.95C121.56,547.67 121.04,548.24 120.36,548.67C119.66,549.11 118.88,549.32 118.09,549.32C117.25,549.32 116.41,549.08 115.68,548.59C114.8,547.99 114.33,547.03 114.33,546.05C114.33,545.47 114.5,544.88 114.85,544.37L114.85,544.36C115.07,544.03 115.18,543.65 115.18,543.28C115.18,542.66 114.88,542.04 114.32,541.67C113.99,541.44 113.61,541.34 113.24,541.34C112.61,541.34 112,541.64 111.62,542.2C110.83,543.37 110.45,544.72 110.45,546.05C110.45,548.27 111.52,550.47 113.5,551.81C114.88,552.74 116.49,553.21 118.09,553.21C119.59,553.21 121.1,552.8 122.42,551.97C124.96,550.38 126.35,547.57 126.35,544.36C126.35,543.8 126.31,543.23 126.22,542.65C125.83,539.97 124.37,537.59 122.2,536.12C120.22,534.78 117.93,534.11 115.65,534.11C113.51,534.11 111.38,534.7 109.5,535.86C105.85,538.13 103.83,542.18 103.83,546.85C103.83,547.61 103.89,548.39 103.99,549.18C104.54,553.17 106.67,556.69 109.87,558.84C110.21,559.07 110.56,559.29 110.91,559.49L110.91,559.49C113.28,560.85 115.88,561.54 118.5,561.54C120.93,561.54 123.37,560.95 125.67,559.78C130.69,557.23 134.05,552.38 134.66,546.82L134.7,546.38L134.7,546.38C134.84,545.37 134.91,544.28 134.91,543.12C134.91,539.83 134.37,536.03 133.37,532.35L133.37,532.35C132.64,529.77 132.36,527.47 132.36,525.44C132.36,521.64 133.36,518.81 134.38,516.89C134.89,515.93 135.4,515.21 135.8,514.71C135.99,514.46 136.16,514.27 136.28,514.14C136.41,514.01 136.48,513.94 136.51,513.91L136.63,513.79L136.65,513.77L136.66,513.75C137.62,512.63 138.95,511.95 140.43,511.84L140.43,511.84C140.57,511.82 140.72,511.82 140.86,511.82C142.19,511.82 143.45,512.28 144.47,513.16C145.41,513.96 145.89,515.1 145.89,516.25C145.89,517.17 145.59,518.08 144.96,518.83C144.51,519.37 143.73,519.74 142.92,519.76L142.93,519.76L142.84,519.76C142.21,519.76 141.69,519.63 141.3,519.42C140.9,519.2 140.62,518.91 140.44,518.53C140.32,518.27 140.26,517.99 140.26,517.72C140.26,517.28 140.41,516.84 140.71,516.5L140.71,516.5C141.02,516.14 141.17,515.68 141.17,515.24C141.17,514.69 140.94,514.14 140.49,513.76C140.13,513.45 139.67,513.3 139.24,513.3C138.69,513.3 138.14,513.53 137.75,513.97L137.75,513.98C136.84,515.04 136.37,516.37 136.37,517.72C136.37,518.56 136.56,519.4 136.93,520.19C137.44,521.28 138.26,522.15 139.28,522.74C140.31,523.33 141.52,523.64 142.84,523.64L142.99,523.64C144.9,523.61 146.73,522.76 147.94,521.33L147.94,521.33C149.17,519.86 149.78,518.05 149.78,516.26C149.78,514.01 148.83,511.77 146.99,510.2Z" style="fill:rgb(58,89,14);fill-rule:nonzero;"/>
        </g>
        <g>
            <path d="M126.25,485.85C126.25,484.84 125.95,483.83 125.34,482.93C123.76,480.59 121.06,479.06 118.73,478.06C116.41,477.06 114.44,476.62 114.23,476.57C114.1,476.54 113.97,476.53 113.84,476.53C113.29,476.53 112.81,476.77 112.46,477.12C112.11,477.47 111.87,477.95 111.87,478.5C111.87,478.63 111.88,478.76 111.91,478.89L111.91,478.88C111.95,479.07 112.4,481.05 113.39,483.39C114.4,485.72 115.92,488.41 118.27,490C119.17,490.61 120.19,490.91 121.19,490.91C122.49,490.92 123.77,490.4 124.75,489.41L124.27,488.93L124.75,489.41C125.74,488.42 126.26,487.15 126.25,485.85ZM120.44,486.77L120.43,486.77C119.46,486.12 118.59,484.99 117.89,483.75C117.47,483 117.11,482.22 116.81,481.47C117.6,481.79 118.42,482.17 119.18,482.61C120.41,483.31 121.5,484.17 122.11,485.09C122.31,485.39 122.36,485.62 122.37,485.83C122.37,486.15 122.22,486.45 122,486.66C121.79,486.88 121.49,487.03 121.18,487.02C120.97,487.02 120.73,486.97 120.44,486.77Z" style="fill:rgb(58,89,14);fill-rule:nonzero;"/>
            <path d="M114.22,476.57L114.23,476.57L114.22,476.57Z" style="fill:rgb(58,89,14);fill-rule:nonzero;"/>
        </g>
    </g>
    <g transform="matrix(0.882347,0,-0,-0.948737,-73.614486,1426.224443)">
        <path d="M208.68,486.14C207.71,486.62 206.66,486.96 205.55,487.12C202.22,487.62 199.05,486.49 196.85,484.03C196.69,483.84 196.53,483.65 196.37,483.44C194.89,481.53 194.31,479 194.78,476.52C195.45,472.96 197.68,470.4 200.73,469.67C203.55,468.99 206.53,470.05 208.3,472.36C209.33,473.69 209.74,475.44 209.43,477.14C208.98,479.67 207.4,481.5 205.22,482.03C203.19,482.53 201.05,481.77 199.78,480.11C198.26,478.13 198.63,475.28 200.6,473.75C201.27,473.24 202.23,473.36 202.75,474.03C203.27,474.7 203.14,475.67 202.47,476.18C201.84,476.67 201.72,477.6 202.21,478.24C202.75,478.94 203.64,479.26 204.49,479.05C205.48,478.81 206.18,477.92 206.41,476.61C206.57,475.74 206.37,474.88 205.87,474.23C204.83,472.88 203.09,472.26 201.44,472.65C199.58,473.1 198.24,474.71 197.79,477.08C197.48,478.73 197.84,480.33 198.8,481.57C198.91,481.71 199.02,481.85 199.14,481.98C200.64,483.67 202.81,484.43 205.1,484.09C207.55,483.72 209.62,482.17 210.64,479.94L210.76,479.68C211.64,477.9 212.27,475.13 212.41,472.42C212.83,463.67 218.35,460.6 219.2,460.21C220.55,459.42 222.15,459.18 223.7,459.57C225.26,459.96 226.58,460.93 227.41,462.32C228.86,464.73 228.1,467.88 225.72,469.35C224.68,469.99 223.35,470.14 222.15,469.76C220.43,469.23 219.29,467.94 219.09,466.34C218.95,465.15 219.37,463.99 220.18,463.17C219.06,463.85 215.77,466.38 215.47,472.58C215.3,475.73 214.58,478.87 213.53,481L213.43,481.22C212.43,483.39 210.75,485.1 208.68,486.14ZM222.21,462.45C222.53,462.57 222.83,462.79 223.02,463.11C223.46,463.83 223.23,464.78 222.5,465.22C222.24,465.37 222.1,465.67 222.14,465.97C222.18,466.36 222.52,466.67 223.07,466.84C223.43,466.95 223.8,466.92 224.11,466.74C225.07,466.15 225.38,464.87 224.79,463.9C224.38,463.22 223.73,462.74 222.95,462.54C222.71,462.48 222.46,462.45 222.21,462.45Z" style="fill:rgb(58,89,14);fill-rule:nonzero;"/>
        <path d="M114.2,578.29L113.97,578.39C111.85,579.44 108.7,580.17 105.55,580.34C99.36,580.63 96.83,583.93 96.14,585.05C96.96,584.23 98.13,583.82 99.31,583.96C100.92,584.15 102.2,585.3 102.74,587.02C103.12,588.21 102.97,589.54 102.32,590.58C100.86,592.97 97.7,593.73 95.29,592.28C93.91,591.45 92.93,590.13 92.54,588.56C92.16,587.02 92.39,585.42 93.19,584.06C93.57,583.22 96.65,577.69 105.4,577.28C108.11,577.13 110.87,576.5 112.66,575.63L112.92,575.51C115.15,574.48 116.7,572.41 117.07,569.96C117.41,567.68 116.64,565.51 114.96,564.01C114.83,563.89 114.69,563.77 114.55,563.66C113.3,562.71 111.71,562.35 110.06,562.66C107.69,563.11 106.08,564.44 105.63,566.31C105.23,567.96 105.85,569.7 107.21,570.74C107.85,571.24 108.72,571.43 109.58,571.28C110.9,571.04 111.79,570.34 112.03,569.36C112.24,568.51 111.92,567.62 111.22,567.08C110.58,566.59 109.65,566.7 109.16,567.34C108.64,568.01 107.68,568.13 107.01,567.62C106.34,567.1 106.21,566.13 106.73,565.47C108.25,563.5 111.1,563.12 113.09,564.65C114.75,565.92 115.5,568.06 115.01,570.09C114.48,572.27 112.65,573.85 110.12,574.3C108.41,574.6 106.67,574.19 105.34,573.17C103.03,571.4 101.97,568.42 102.65,565.6C103.38,562.54 105.94,560.32 109.49,559.65C111.98,559.18 114.5,559.76 116.42,561.24C116.62,561.39 116.82,561.56 117,561.72C119.47,563.92 120.6,567.09 120.1,570.42C119.93,571.53 119.6,572.58 119.11,573.55C118.08,575.62 116.36,577.3 114.2,578.29ZM95.52,587.82C95.71,588.59 96.19,589.24 96.87,589.65C97.85,590.24 99.12,589.93 99.71,588.97C99.9,588.66 99.92,588.29 99.81,587.93C99.64,587.38 99.33,587.05 98.94,587C98.64,586.96 98.34,587.11 98.19,587.36C97.75,588.09 96.81,588.32 96.08,587.88C95.76,587.69 95.54,587.4 95.43,587.07C95.43,587.32 95.45,587.57 95.52,587.82Z" style="fill:rgb(58,89,14);fill-rule:nonzero;"/>
        <path d="M144.04,501.03C142.85,501.47 141.59,501.73 140.28,501.78C136.34,501.93 132.8,500.21 130.56,497.06C130.39,496.82 130.23,496.58 130.07,496.32C128.6,493.9 128.25,490.89 129.11,488.06C130.34,484.01 133.26,481.32 136.9,480.86C140.28,480.44 143.6,482.05 145.37,484.96C146.39,486.64 146.64,488.72 146.07,490.67C145.22,493.55 143.15,495.48 140.54,495.81C138.12,496.13 135.73,494.98 134.46,492.88C132.95,490.38 133.74,487.11 136.23,485.6C137.07,485.08 138.18,485.35 138.7,486.19C139.21,487.04 138.95,488.14 138.1,488.66C137.29,489.15 137.04,490.21 137.53,491.02C138.07,491.9 139.06,492.39 140.08,492.25C141.25,492.1 142.18,491.15 142.63,489.65C142.92,488.67 142.8,487.64 142.3,486.82C141.27,485.11 139.32,484.17 137.35,484.42C135.12,484.7 133.36,486.41 132.54,489.11C131.97,490.99 132.18,492.89 133.13,494.45C133.24,494.63 133.36,494.81 133.48,494.98C135.01,497.13 137.43,498.3 140.14,498.19C143.03,498.08 145.64,496.54 147.12,494.08L147.29,493.79C148.54,491.82 149.62,488.69 150.14,485.56C151.74,475.43 158.56,472.57 159.6,472.22C161.27,471.47 163.17,471.4 164.91,472.05C166.68,472.7 168.09,474.01 168.88,475.72C170.26,478.71 168.97,482.28 166.01,483.69C164.72,484.3 163.15,484.3 161.81,483.71C159.88,482.87 158.71,481.23 158.69,479.33C158.67,477.94 159.31,476.64 160.36,475.79C158.97,476.44 154.81,478.96 153.68,486.13C153.08,489.77 151.83,493.34 150.34,495.67L150.19,495.92C148.76,498.31 146.59,500.09 144.04,501.03ZM162.81,475.22C163.18,475.39 163.49,475.69 163.67,476.08C164.09,476.98 163.7,478.05 162.8,478.47C162.48,478.62 162.28,478.94 162.28,479.3C162.28,479.75 162.63,480.16 163.25,480.43C163.65,480.6 164.09,480.62 164.47,480.44C165.67,479.88 166.18,478.44 165.63,477.23C165.23,476.38 164.54,475.74 163.67,475.42C163.39,475.31 163.1,475.25 162.81,475.22Z" style="fill:rgb(58,89,14);fill-rule:nonzero;"/>
        <path d="M128.82,516.19L128.56,516.33C126.17,517.8 122.54,519.01 118.84,519.56C111.56,520.59 108.93,524.76 108.25,526.16C109.13,525.1 110.46,524.48 111.87,524.52C113.79,524.57 115.43,525.78 116.26,527.75C116.83,529.12 116.8,530.71 116.16,532.01C114.69,534.99 111.05,536.23 108.05,534.79C106.32,533.95 105.02,532.5 104.39,530.7C103.76,528.92 103.87,527.01 104.65,525.32C105.02,524.28 108.04,517.42 118.32,515.96C121.5,515.49 124.7,514.45 126.71,513.21L127,513.04C129.52,511.59 131.12,508.97 131.29,506.04C131.44,503.3 130.29,500.82 128.14,499.24C127.97,499.12 127.8,499 127.61,498.88C126.04,497.89 124.12,497.64 122.21,498.19C119.46,498.98 117.71,500.73 117.38,502.99C117.09,504.98 118.02,506.97 119.73,508.05C120.55,508.56 121.59,508.7 122.6,508.42C124.12,508 125.1,507.07 125.27,505.88C125.42,504.86 124.95,503.84 124.07,503.28C123.25,502.77 122.17,503.01 121.66,503.82C121.13,504.67 120,504.92 119.16,504.38C118.31,503.84 118.05,502.72 118.59,501.88C120.17,499.38 123.49,498.63 126,500.2C128.1,501.52 129.23,503.96 128.87,506.41C128.48,509.05 126.5,511.11 123.56,511.92C121.58,512.47 119.48,512.18 117.8,511.12C114.87,509.28 113.3,505.89 113.78,502.48C114.31,498.79 117.08,495.88 121.21,494.7C124.09,493.87 127.13,494.28 129.56,495.81C129.81,495.97 130.06,496.14 130.3,496.32C133.45,498.64 135.14,502.25 134.92,506.24C134.84,507.57 134.56,508.85 134.1,510.04C133.1,512.6 131.26,514.78 128.82,516.19ZM107.82,529.5C108.13,530.38 108.77,531.1 109.62,531.51C110.84,532.1 112.31,531.6 112.9,530.4C113.08,530.01 113.07,529.57 112.9,529.16C112.64,528.52 112.24,528.17 111.77,528.15C111.41,528.14 111.08,528.35 110.92,528.67C110.49,529.57 109.4,529.95 108.49,529.51C108.09,529.32 107.8,529 107.63,528.62C107.65,528.92 107.72,529.21 107.82,529.5Z" style="fill:rgb(58,89,14);fill-rule:nonzero;"/>
        <path d="M246.68,471.81C243.96,472.31 241.22,472.76 238.5,473.31L230.39,475.26C229.71,475.4 229.05,475.61 228.38,475.81L226.39,476.42L222.4,477.65L220.4,478.27L218.45,478.99L214.53,480.44C204.11,484.38 194.14,489.49 184.71,495.43C175.3,501.42 166.49,508.35 158.36,515.98C150.28,523.67 142.86,532.06 136.27,541.04C129.72,550.05 123.87,559.58 119.04,569.6C114.16,579.59 110.23,590.05 107.42,600.79C107.25,601.47 107.05,602.13 106.9,602.81L106.46,604.84L105.57,608.91L104.87,613.01C104.63,614.38 104.4,615.74 104.27,617.12C103.53,622.62 103.35,628.17 103.48,633.68L103.78,629.55C103.84,628.87 103.85,628.18 103.95,627.5L104.22,625.45C104.4,624.09 104.52,622.72 104.75,621.37L105.48,617.31C105.69,615.96 106.02,614.62 106.32,613.29L107.24,609.28L108.33,605.32L108.88,603.34C109.06,602.68 109.3,602.04 109.5,601.38L110.76,597.47C111.14,596.16 111.67,594.9 112.13,593.61L113.55,589.76L115.14,585.98C115.68,584.72 116.16,583.44 116.75,582.21L118.46,578.49L119.32,576.63C119.61,576.01 119.94,575.41 120.24,574.8L122.11,571.15C127.21,561.5 133.02,552.22 139.63,543.53C146.19,534.83 153.45,526.65 161.4,519.2C169.29,511.69 177.86,504.91 186.98,498.95C189.21,497.38 191.58,496.04 193.91,494.62C195.08,493.94 196.23,493.19 197.42,492.55L201.03,490.63L204.64,488.71L208.35,486.98L212.04,485.24L212.97,484.8L213.92,484.41L215.81,483.64C225.88,479.47 236.34,476.11 247.08,473.94C257.8,471.67 268.74,470.42 279.77,469.84C268.74,469.44 257.65,470.11 246.68,471.81Z" style="fill:rgb(58,89,14);fill-rule:nonzero;"/>
        <g>
            <path d="M176.27,477.55L176.28,477.55L176.27,477.55Z" style="fill:rgb(58,89,14);fill-rule:nonzero;"/>
            <path d="M193.57,476.83L193.57,476.83L193.57,476.83L193.57,476.83Z" style="fill:rgb(58,89,14);fill-rule:nonzero;"/>
            <path d="M193.57,476.83C193.37,476.48 193.15,476.14 192.92,475.8C190.77,472.6 187.25,470.46 183.26,469.92C182.47,469.81 181.69,469.76 180.92,469.76C176.25,469.75 172.21,471.77 169.94,475.42C168.77,477.3 168.19,479.44 168.19,481.57C168.19,483.86 168.86,486.15 170.2,488.12C171.66,490.29 174.05,491.75 176.73,492.14C177.31,492.23 177.88,492.27 178.44,492.27C181.64,492.28 184.45,490.88 186.04,488.35C186.88,487.02 187.29,485.51 187.29,484.01C187.29,482.41 186.82,480.81 185.88,479.42C184.54,477.44 182.35,476.37 180.12,476.37C178.8,476.37 177.45,476.75 176.27,477.55C175.72,477.92 175.42,478.54 175.42,479.16C175.42,479.53 175.52,479.91 175.75,480.24C176.12,480.8 176.74,481.1 177.36,481.1C177.73,481.1 178.11,480.99 178.44,480.77C178.96,480.42 179.54,480.25 180.13,480.25C181.11,480.26 182.07,480.73 182.66,481.6C183.16,482.33 183.4,483.17 183.4,484.01C183.4,484.8 183.19,485.59 182.75,486.28C182.32,486.96 181.74,487.48 181.03,487.83C180.31,488.19 179.45,488.39 178.47,488.39C178.09,488.39 177.7,488.36 177.29,488.3C175.67,488.06 174.26,487.19 173.42,485.94C172.52,484.62 172.08,483.1 172.08,481.57C172.08,480.14 172.47,478.72 173.24,477.47C174.01,476.23 175.06,475.28 176.35,474.63C177.63,473.98 179.16,473.64 180.87,473.64C181.47,473.64 182.1,473.68 182.74,473.77C185.7,474.17 188.15,475.66 189.7,477.97L189.7,477.97C189.88,478.23 190.04,478.49 190.2,478.77L190.2,478.77C191.22,480.54 191.73,482.47 191.73,484.43C191.73,486.24 191.29,488.08 190.4,489.83C188.44,493.68 184.73,496.25 180.48,496.72L179.97,496.77L179.96,496.77L179.95,496.77C179.14,496.88 178.22,496.94 177.23,496.94C174.31,496.94 170.78,496.45 167.48,495.55L167.48,495.55C164.54,494.72 161.89,494.39 159.51,494.39C155.09,494.39 151.68,495.55 149.29,496.79C146.92,498.03 145.57,499.34 145.22,499.7C145.06,499.84 144.91,499.99 144.76,500.14L145.24,500.62L144.76,500.14C143.18,501.72 142.22,503.8 142.04,506.05C142.03,506.3 142.02,506.54 142.02,506.79C142.01,509.03 142.81,511.19 144.28,512.91C145.85,514.75 148.09,515.7 150.34,515.7C152.13,515.7 153.94,515.09 155.41,513.86L155.41,513.86C156.84,512.65 157.69,510.82 157.72,508.91L157.72,508.91L157.72,508.76C157.72,507.44 157.41,506.22 156.82,505.2C156.23,504.18 155.36,503.36 154.27,502.84C153.48,502.47 152.64,502.29 151.8,502.29C150.46,502.29 149.12,502.76 148.06,503.67L148.05,503.67C147.61,504.06 147.37,504.6 147.37,505.15C147.37,505.6 147.53,506.05 147.84,506.41C148.22,506.86 148.77,507.09 149.32,507.09C149.76,507.09 150.22,506.94 150.58,506.63L150.58,506.62C150.92,506.33 151.36,506.18 151.8,506.18C152.08,506.18 152.35,506.24 152.61,506.36C152.99,506.54 153.28,506.82 153.5,507.22C153.71,507.61 153.84,508.13 153.84,508.76L153.84,508.84L153.84,508.84C153.82,509.65 153.46,510.42 152.91,510.88C152.16,511.51 151.25,511.81 150.34,511.81C149.18,511.81 148.04,511.33 147.24,510.39C146.37,509.37 145.9,508.11 145.9,506.79C145.9,506.64 145.91,506.5 145.92,506.35C146.03,504.87 146.71,503.54 147.83,502.58L147.85,502.57L147.98,502.45L147.99,502.43C148.15,502.27 151.93,498.28 159.51,498.28C161.54,498.28 163.85,498.56 166.44,499.29L166.44,499.29C170.12,500.3 173.92,500.83 177.21,500.83C178.35,500.83 179.43,500.77 180.42,500.63L180.42,500.63L180.9,500.58C186.47,499.97 191.32,496.61 193.87,491.59C195.04,489.29 195.62,486.85 195.62,484.42C195.62,481.8 194.93,479.2 193.57,476.83Z" style="fill:rgb(58,89,14);fill-rule:nonzero;"/>
        </g>
        <g>
            <path d="M114.32,541.67L114.33,541.67L114.32,541.67Z" style="fill:rgb(58,89,14);fill-rule:nonzero;"/>
            <path d="M111.62,542.2L111.63,542.2L111.62,542.2Z" style="fill:rgb(58,89,14);fill-rule:nonzero;"/>
            <path d="M146.99,510.2C145.27,508.73 143.11,507.93 140.87,507.94C140.62,507.94 140.38,507.94 140.13,507.96C137.88,508.14 135.8,509.1 134.22,510.68L134.7,511.16L134.22,510.68C134.07,510.83 133.92,510.98 133.78,511.14C133.41,511.5 132.1,512.85 130.87,515.22C129.62,517.6 128.46,521.01 128.46,525.43C128.46,527.8 128.8,530.46 129.62,533.4L129.62,533.39C130.53,536.69 131.02,540.22 131.02,543.16C131.02,544.15 130.96,545.08 130.85,545.91L130.85,545.92L130.79,546.41L130.79,546.4C130.33,550.66 127.76,554.36 123.91,556.32C122.16,557.21 120.32,557.65 118.51,557.65C116.55,557.65 114.62,557.14 112.84,556.12C112.57,555.96 112.31,555.8 112.05,555.62L112.05,555.62C109.74,554.07 108.25,551.62 107.85,548.66C107.76,548.02 107.72,547.4 107.72,546.8C107.72,545.09 108.06,543.56 108.71,542.28C109.36,540.99 110.31,539.94 111.55,539.16C112.8,538.39 114.22,538 115.65,538C117.17,538 118.7,538.45 120.02,539.34C121.27,540.18 122.14,541.59 122.38,543.21C122.43,543.62 122.46,544.01 122.46,544.39C122.46,545.37 122.27,546.23 121.91,546.95C121.56,547.67 121.04,548.24 120.36,548.67C119.66,549.11 118.88,549.32 118.09,549.32C117.25,549.32 116.41,549.08 115.68,548.59C114.8,547.99 114.33,547.03 114.33,546.05C114.33,545.47 114.5,544.88 114.85,544.37L114.85,544.36C115.07,544.03 115.18,543.65 115.18,543.28C115.18,542.66 114.88,542.04 114.32,541.67C113.99,541.44 113.61,541.34 113.24,541.34C112.61,541.34 112,541.64 111.62,542.2C110.83,543.37 110.45,544.72 110.45,546.05C110.45,548.27 111.52,550.47 113.5,551.81C114.88,552.74 116.49,553.21 118.09,553.21C119.59,553.21 121.1,552.8 122.42,551.97C124.96,550.38 126.35,547.57 126.35,544.36C126.35,543.8 126.31,543.23 126.22,542.65C125.83,539.97 124.37,537.59 122.2,536.12C120.22,534.78 117.93,534.11 115.65,534.11C113.51,534.11 111.38,534.7 109.5,535.86C105.85,538.13 103.83,542.18 103.83,546.85C103.83,547.61 103.89,548.39 103.99,549.18C104.54,553.17 106.67,556.69 109.87,558.84C110.21,559.07 110.56,559.29 110.91,559.49L110.91,559.49C113.28,560.85 115.88,561.54 118.5,561.54C120.93,561.54 123.37,560.95 125.67,559.78C130.69,557.23 134.05,552.38 134.66,546.82L134.7,546.38L134.7,546.38C134.84,545.37 134.91,544.28 134.91,543.12C134.91,539.83 134.37,536.03 133.37,532.35L133.37,532.35C132.64,529.77 132.36,527.47 132.36,525.44C132.36,521.64 133.36,518.81 134.38,516.89C134.89,515.93 135.4,515.21 135.8,514.71C135.99,514.46 136.16,514.27 136.28,514.14C136.41,514.01 136.48,513.94 136.51,513.91L136.63,513.79L136.65,513.77L136.66,513.75C137.62,512.63 138.95,511.95 140.43,511.84L140.43,511.84C140.57,511.82 140.72,511.82 140.86,511.82C142.19,511.82 143.45,512.28 144.47,513.16C145.41,513.96 145.89,515.1 145.89,516.25C145.89,517.17 145.59,518.08 144.96,518.83C144.51,519.37 143.73,519.74 142.92,519.76L142.93,519.76L142.84,519.76C142.21,519.76 141.69,519.63 141.3,519.42C140.9,519.2 140.62,518.91 140.44,518.53C140.32,518.27 140.26,517.99 140.26,517.72C140.26,517.28 140.41,516.84 140.71,516.5L140.71,516.5C141.02,516.14 141.17,515.68 141.17,515.24C141.17,514.69 140.94,514.14 140.49,513.76C140.13,513.45 139.67,513.3 139.24,513.3C138.69,513.3 138.14,513.53 137.75,513.97L137.75,513.98C136.84,515.04 136.37,516.37 136.37,517.72C136.37,518.56 136.56,519.4 136.93,520.19C137.44,521.28 138.26,522.15 139.28,522.74C140.31,523.33 141.52,523.64 142.84,523.64L142.99,523.64C144.9,523.61 146.73,522.76 147.94,521.33L147.94,521.33C149.17,519.86 149.78,518.05 149.78,516.26C149.78,514.01 148.83,511.77 146.99,510.2Z" style="fill:rgb(58,89,14);fill-rule:nonzero;"/>
        </g>
        <g>
            <path d="M126.25,485.85C126.25,484.84 125.95,483.83 125.34,482.93C123.76,480.59 121.06,479.06 118.73,478.06C116.41,477.06 114.44,476.62 114.23,476.57C114.1,476.54 113.97,476.53 113.84,476.53C113.29,476.53 112.81,476.77 112.46,477.12C112.11,477.47 111.87,477.95 111.87,478.5C111.87,478.63 111.88,478.76 111.91,478.89L111.91,478.88C111.95,479.07 112.4,481.05 113.39,483.39C114.4,485.72 115.92,488.41 118.27,490C119.17,490.61 120.19,490.91 121.19,490.91C122.49,490.92 123.77,490.4 124.75,489.41L124.27,488.93L124.75,489.41C125.74,488.42 126.26,487.15 126.25,485.85ZM120.44,486.77L120.43,486.77C119.46,486.12 118.59,484.99 117.89,483.75C117.47,483 117.11,482.22 116.81,481.47C117.6,481.79 118.42,482.17 119.18,482.61C120.41,483.31 121.5,484.17 122.11,485.09C122.31,485.39 122.36,485.62 122.37,485.83C122.37,486.15 122.22,486.45 122,486.66C121.79,486.88 121.49,487.03 121.18,487.02C120.97,487.02 120.73,486.97 120.44,486.77Z" style="fill:rgb(58,89,14);fill-rule:nonzero;"/>
            <path d="M114.22,476.57L114.23,476.57L114.22,476.57Z" style="fill:rgb(58,89,14);fill-rule:nonzero;"/>
        </g>
    </g>
    <g transform="matrix(-0.882347,0,0,-0.948737,723.310574,1426.224443)">
        <path d="M208.68,486.14C207.71,486.62 206.66,486.96 205.55,487.12C202.22,487.62 199.05,486.49 196.85,484.03C196.69,483.84 196.53,483.65 196.37,483.44C194.89,481.53 194.31,479 194.78,476.52C195.45,472.96 197.68,470.4 200.73,469.67C203.55,468.99 206.53,470.05 208.3,472.36C209.33,473.69 209.74,475.44 209.43,477.14C208.98,479.67 207.4,481.5 205.22,482.03C203.19,482.53 201.05,481.77 199.78,480.11C198.26,478.13 198.63,475.28 200.6,473.75C201.27,473.24 202.23,473.36 202.75,474.03C203.27,474.7 203.14,475.67 202.47,476.18C201.84,476.67 201.72,477.6 202.21,478.24C202.75,478.94 203.64,479.26 204.49,479.05C205.48,478.81 206.18,477.92 206.41,476.61C206.57,475.74 206.37,474.88 205.87,474.23C204.83,472.88 203.09,472.26 201.44,472.65C199.58,473.1 198.24,474.71 197.79,477.08C197.48,478.73 197.84,480.33 198.8,481.57C198.91,481.71 199.02,481.85 199.14,481.98C200.64,483.67 202.81,484.43 205.1,484.09C207.55,483.72 209.62,482.17 210.64,479.94L210.76,479.68C211.64,477.9 212.27,475.13 212.41,472.42C212.83,463.67 218.35,460.6 219.2,460.21C220.55,459.42 222.15,459.18 223.7,459.57C225.26,459.96 226.58,460.93 227.41,462.32C228.86,464.73 228.1,467.88 225.72,469.35C224.68,469.99 223.35,470.14 222.15,469.76C220.43,469.23 219.29,467.94 219.09,466.34C218.95,465.15 219.37,463.99 220.18,463.17C219.06,463.85 215.77,466.38 215.47,472.58C215.3,475.73 214.58,478.87 213.53,481L213.43,481.22C212.43,483.39 210.75,485.1 208.68,486.14ZM222.21,462.45C222.53,462.57 222.83,462.79 223.02,463.11C223.46,463.83 223.23,464.78 222.5,465.22C222.24,465.37 222.1,465.67 222.14,465.97C222.18,466.36 222.52,466.67 223.07,466.84C223.43,466.95 223.8,466.92 224.11,466.74C225.07,466.15 225.38,464.87 224.79,463.9C224.38,463.22 223.73,462.74 222.95,462.54C222.71,462.48 222.46,462.45 222.21,462.45Z" style="fill:rgb(58,89,14);fill-rule:nonzero;"/>
        <path d="M114.2,578.29L113.97,578.39C111.85,579.44 108.7,580.17 105.55,580.34C99.36,580.63 96.83,583.93 96.14,585.05C96.96,584.23 98.13,583.82 99.31,583.96C100.92,584.15 102.2,585.3 102.74,587.02C103.12,588.21 102.97,589.54 102.32,590.58C100.86,592.97 97.7,593.73 95.29,592.28C93.91,591.45 92.93,590.13 92.54,588.56C92.16,587.02 92.39,585.42 93.19,584.06C93.57,583.22 96.65,577.69 105.4,577.28C108.11,577.13 110.87,576.5 112.66,575.63L112.92,575.51C115.15,574.48 116.7,572.41 117.07,569.96C117.41,567.68 116.64,565.51 114.96,564.01C114.83,563.89 114.69,563.77 114.55,563.66C113.3,562.71 111.71,562.35 110.06,562.66C107.69,563.11 106.08,564.44 105.63,566.31C105.23,567.96 105.85,569.7 107.21,570.74C107.85,571.24 108.72,571.43 109.58,571.28C110.9,571.04 111.79,570.34 112.03,569.36C112.24,568.51 111.92,567.62 111.22,567.08C110.58,566.59 109.65,566.7 109.16,567.34C108.64,568.01 107.68,568.13 107.01,567.62C106.34,567.1 106.21,566.13 106.73,565.47C108.25,563.5 111.1,563.12 113.09,564.65C114.75,565.92 115.5,568.06 115.01,570.09C114.48,572.27 112.65,573.85 110.12,574.3C108.41,574.6 106.67,574.19 105.34,573.17C103.03,571.4 101.97,568.42 102.65,565.6C103.38,562.54 105.94,560.32 109.49,559.65C111.98,559.18 114.5,559.76 116.42,561.24C116.62,561.39 116.82,561.56 117,561.72C119.47,563.92 120.6,567.09 120.1,570.42C119.93,571.53 119.6,572.58 119.11,573.55C118.08,575.62 116.36,577.3 114.2,578.29ZM95.52,587.82C95.71,588.59 96.19,589.24 96.87,589.65C97.85,590.24 99.12,589.93 99.71,588.97C99.9,588.66 99.92,588.29 99.81,587.93C99.64,587.38 99.33,587.05 98.94,587C98.64,586.96 98.34,587.11 98.19,587.36C97.75,588.09 96.81,588.32 96.08,587.88C95.76,587.69 95.54,587.4 95.43,587.07C95.43,587.32 95.45,587.57 95.52,587.82Z" style="fill:rgb(58,89,14);fill-rule:nonzero;"/>
        <path d="M144.04,501.03C142.85,501.47 141.59,501.73 140.28,501.78C136.34,501.93 132.8,500.21 130.56,497.06C130.39,496.82 130.23,496.58 130.07,496.32C128.6,493.9 128.25,490.89 129.11,488.06C130.34,484.01 133.26,481.32 136.9,480.86C140.28,480.44 143.6,482.05 145.37,484.96C146.39,486.64 146.64,488.72 146.07,490.67C145.22,493.55 143.15,495.48 140.54,495.81C138.12,496.13 135.73,494.98 134.46,492.88C132.95,490.38 133.74,487.11 136.23,485.6C137.07,485.08 138.18,485.35 138.7,486.19C139.21,487.04 138.95,488.14 138.1,488.66C137.29,489.15 137.04,490.21 137.53,491.02C138.07,491.9 139.06,492.39 140.08,492.25C141.25,492.1 142.18,491.15 142.63,489.65C142.92,488.67 142.8,487.64 142.3,486.82C141.27,485.11 139.32,484.17 137.35,484.42C135.12,484.7 133.36,486.41 132.54,489.11C131.97,490.99 132.18,492.89 133.13,494.45C133.24,494.63 133.36,494.81 133.48,494.98C135.01,497.13 137.43,498.3 140.14,498.19C143.03,498.08 145.64,496.54 147.12,494.08L147.29,493.79C148.54,491.82 149.62,488.69 150.14,485.56C151.74,475.43 158.56,472.57 159.6,472.22C161.27,471.47 163.17,471.4 164.91,472.05C166.68,472.7 168.09,474.01 168.88,475.72C170.26,478.71 168.97,482.28 166.01,483.69C164.72,484.3 163.15,484.3 161.81,483.71C159.88,482.87 158.71,481.23 158.69,479.33C158.67,477.94 159.31,476.64 160.36,475.79C158.97,476.44 154.81,478.96 153.68,486.13C153.08,489.77 151.83,493.34 150.34,495.67L150.19,495.92C148.76,498.31 146.59,500.09 144.04,501.03ZM162.81,475.22C163.18,475.39 163.49,475.69 163.67,476.08C164.09,476.98 163.7,478.05 162.8,478.47C162.48,478.62 162.28,478.94 162.28,479.3C162.28,479.75 162.63,480.16 163.25,480.43C163.65,480.6 164.09,480.62 164.47,480.44C165.67,479.88 166.18,478.44 165.63,477.23C165.23,476.38 164.54,475.74 163.67,475.42C163.39,475.31 163.1,475.25 162.81,475.22Z" style="fill:rgb(58,89,14);fill-rule:nonzero;"/>
        <path d="M128.82,516.19L128.56,516.33C126.17,517.8 122.54,519.01 118.84,519.56C111.56,520.59 108.93,524.76 108.25,526.16C109.13,525.1 110.46,524.48 111.87,524.52C113.79,524.57 115.43,525.78 116.26,527.75C116.83,529.12 116.8,530.71 116.16,532.01C114.69,534.99 111.05,536.23 108.05,534.79C106.32,533.95 105.02,532.5 104.39,530.7C103.76,528.92 103.87,527.01 104.65,525.32C105.02,524.28 108.04,517.42 118.32,515.96C121.5,515.49 124.7,514.45 126.71,513.21L127,513.04C129.52,511.59 131.12,508.97 131.29,506.04C131.44,503.3 130.29,500.82 128.14,499.24C127.97,499.12 127.8,499 127.61,498.88C126.04,497.89 124.12,497.64 122.21,498.19C119.46,498.98 117.71,500.73 117.38,502.99C117.09,504.98 118.02,506.97 119.73,508.05C120.55,508.56 121.59,508.7 122.6,508.42C124.12,508 125.1,507.07 125.27,505.88C125.42,504.86 124.95,503.84 124.07,503.28C123.25,502.77 122.17,503.01 121.66,503.82C121.13,504.67 120,504.92 119.16,504.38C118.31,503.84 118.05,502.72 118.59,501.88C120.17,499.38 123.49,498.63 126,500.2C128.1,501.52 129.23,503.96 128.87,506.41C128.48,509.05 126.5,511.11 123.56,511.92C121.58,512.47 119.48,512.18 117.8,511.12C114.87,509.28 113.3,505.89 113.78,502.48C114.31,498.79 117.08,495.88 121.21,494.7C124.09,493.87 127.13,494.28 129.56,495.81C129.81,495.97 130.06,496.14 130.3,496.32C133.45,498.64 135.14,502.25 134.92,506.24C134.84,507.57 134.56,508.85 134.1,510.04C133.1,512.6 131.26,514.78 128.82,516.19ZM107.82,529.5C108.13,530.38 108.77,531.1 109.62,531.51C110.84,532.1 112.31,531.6 112.9,530.4C113.08,530.01 113.07,529.57 112.9,529.16C112.64,528.52 112.24,528.17 111.77,528.15C111.41,528.14 111.08,528.35 110.92,528.67C110.49,529.57 109.4,529.95 108.49,529.51C108.09,529.32 107.8,529 107.63,528.62C107.65,528.92 107.72,529.21 107.82,529.5Z" style="fill:rgb(58,89,14);fill-rule:nonzero;"/>
        <path d="M246.68,471.81C243.96,472.31 241.22,472.76 238.5,473.31L230.39,475.26C229.71,475.4 229.05,475.61 228.38,475.81L226.39,476.42L222.4,477.65L220.4,478.27L218.45,478.99L214.53,480.44C204.11,484.38 194.14,489.49 184.71,495.43C175.3,501.42 166.49,508.35 158.36,515.98C150.28,523.67 142.86,532.06 136.27,541.04C129.72,550.05 123.87,559.58 119.04,569.6C114.16,579.59 110.23,590.05 107.42,600.79C107.25,601.47 107.05,602.13 106.9,602.81L106.46,604.84L105.57,608.91L104.87,613.01C104.63,614.38 104.4,615.74 104.27,617.12C103.53,622.62 103.35,628.17 103.48,633.68L103.78,629.55C103.84,628.87 103.85,628.18 103.95,627.5L104.22,625.45C104.4,624.09 104.52,622.72 104.75,621.37L105.48,617.31C105.69,615.96 106.02,614.62 106.32,613.29L107.24,609.28L108.33,605.32L108.88,603.34C109.06,602.68 109.3,602.04 109.5,601.38L110.76,597.47C111.14,596.16 111.67,594.9 112.13,593.61L113.55,589.76L115.14,585.98C115.68,584.72 116.16,583.44 116.75,582.21L118.46,578.49L119.32,576.63C119.61,576.01 119.94,575.41 120.24,574.8L122.11,571.15C127.21,561.5 133.02,552.22 139.63,543.53C146.19,534.83 153.45,526.65 161.4,519.2C169.29,511.69 177.86,504.91 186.98,498.95C189.21,497.38 191.58,496.04 193.91,494.62C195.08,493.94 196.23,493.19 197.42,492.55L201.03,490.63L204.64,488.71L208.35,486.98L212.04,485.24L212.97,484.8L213.92,484.41L215.81,483.64C225.88,479.47 236.34,476.11 247.08,473.94C257.8,471.67 268.74,470.42 279.77,469.84C268.74,469.44 257.65,470.11 246.68,471.81Z" style="fill:rgb(58,89,14);fill-rule:nonzero;"/>
        <g>
            <path d="M176.27,477.55L176.28,477.55L176.27,477.55Z" style="fill:rgb(58,89,14);fill-rule:nonzero;"/>
            <path d="M193.57,476.83L193.57,476.83L193.57,476.83L193.57,476.83Z" style="fill:rgb(58,89,14);fill-rule:nonzero;"/>
            <path d="M193.57,476.83C193.37,476.48 193.15,476.14 192.92,475.8C190.77,472.6 187.25,470.46 183.26,469.92C182.47,469.81 181.69,469.76 180.92,469.76C176.25,469.75 172.21,471.77 169.94,475.42C168.77,477.3 168.19,479.44 168.19,481.57C168.19,483.86 168.86,486.15 170.2,488.12C171.66,490.29 174.05,491.75 176.73,492.14C177.31,492.23 177.88,492.27 178.44,492.27C181.64,492.28 184.45,490.88 186.04,488.35C186.88,487.02 187.29,485.51 187.29,484.01C187.29,482.41 186.82,480.81 185.88,479.42C184.54,477.44 182.35,476.37 180.12,476.37C178.8,476.37 177.45,476.75 176.27,477.55C175.72,477.92 175.42,478.54 175.42,479.16C175.42,479.53 175.52,479.91 175.75,480.24C176.12,480.8 176.74,481.1 177.36,481.1C177.73,481.1 178.11,480.99 178.44,480.77C178.96,480.42 179.54,480.25 180.13,480.25C181.11,480.26 182.07,480.73 182.66,481.6C183.16,482.33 183.4,483.17 183.4,484.01C183.4,484.8 183.19,485.59 182.75,486.28C182.32,486.96 181.74,487.48 181.03,487.83C180.31,488.19 179.45,488.39 178.47,488.39C178.09,488.39 177.7,488.36 177.29,488.3C175.67,488.06 174.26,487.19 173.42,485.94C172.52,484.62 172.08,483.1 172.08,481.57C172.08,480.14 172.47,478.72 173.24,477.47C174.01,476.23 175.06,475.28 176.35,474.63C177.63,473.98 179.16,473.64 180.87,473.64C181.47,473.64 182.1,473.68 182.74,473.77C185.7,474.17 188.15,475.66 189.7,477.97L189.7,477.97C189.88,478.23 190.04,478.49 190.2,478.77L190.2,478.77C191.22,480.54 191.73,482.47 191.73,484.43C191.73,486.24 191.29,488.08 190.4,489.83C188.44,493.68 184.73,496.25 180.48,496.72L179.97,496.77L179.96,496.77L179.95,496.77C179.14,496.88 178.22,496.94 177.23,496.94C174.31,496.94 170.78,496.45 167.48,495.55L167.48,495.55C164.54,494.72 161.89,494.39 159.51,494.39C155.09,494.39 151.68,495.55 149.29,496.79C146.92,498.03 145.57,499.34 145.22,499.7C145.06,499.84 144.91,499.99 144.76,500.14L145.24,500.62L144.76,500.14C143.18,501.72 142.22,503.8 142.04,506.05C142.03,506.3 142.02,506.54 142.02,506.79C142.01,509.03 142.81,511.19 144.28,512.91C145.85,514.75 148.09,515.7 150.34,515.7C152.13,515.7 153.94,515.09 155.41,513.86L155.41,513.86C156.84,512.65 157.69,510.82 157.72,508.91L157.72,508.91L157.72,508.76C157.72,507.44 157.41,506.22 156.82,505.2C156.23,504.18 155.36,503.36 154.27,502.84C153.48,502.47 152.64,502.29 151.8,502.29C150.46,502.29 149.12,502.76 148.06,503.67L148.05,503.67C147.61,504.06 147.37,504.6 147.37,505.15C147.37,505.6 147.53,506.05 147.84,506.41C148.22,506.86 148.77,507.09 149.32,507.09C149.76,507.09 150.22,506.94 150.58,506.63L150.58,506.62C150.92,506.33 151.36,506.18 151.8,506.18C152.08,506.18 152.35,506.24 152.61,506.36C152.99,506.54 153.28,506.82 153.5,507.22C153.71,507.61 153.84,508.13 153.84,508.76L153.84,508.84L153.84,508.84C153.82,509.65 153.46,510.42 152.91,510.88C152.16,511.51 151.25,511.81 150.34,511.81C149.18,511.81 148.04,511.33 147.24,510.39C146.37,509.37 145.9,508.11 145.9,506.79C145.9,506.64 145.91,506.5 145.92,506.35C146.03,504.87 146.71,503.54 147.83,502.58L147.85,502.57L147.98,502.45L147.99,502.43C148.15,502.27 151.93,498.28 159.51,498.28C161.54,498.28 163.85,498.56 166.44,499.29L166.44,499.29C170.12,500.3 173.92,500.83 177.21,500.83C178.35,500.83 179.43,500.77 180.42,500.63L180.42,500.63L180.9,500.58C186.47,499.97 191.32,496.61 193.87,491.59C195.04,489.29 195.62,486.85 195.62,484.42C195.62,481.8 194.93,479.2 193.57,476.83Z" style="fill:rgb(58,89,14);fill-rule:nonzero;"/>
        </g>
        <g>
            <path d="M114.32,541.67L114.33,541.67L114.32,541.67Z" style="fill:rgb(58,89,14);fill-rule:nonzero;"/>
            <path d="M111.62,542.2L111.63,542.2L111.62,542.2Z" style="fill:rgb(58,89,14);fill-rule:nonzero;"/>
            <path d="M146.99,510.2C145.27,508.73 143.11,507.93 140.87,507.94C140.62,507.94 140.38,507.94 140.13,507.96C137.88,508.14 135.8,509.1 134.22,510.68L134.7,511.16L134.22,510.68C134.07,510.83 133.92,510.98 133.78,511.14C133.41,511.5 132.1,512.85 130.87,515.22C129.62,517.6 128.46,521.01 128.46,525.43C128.46,527.8 128.8,530.46 129.62,533.4L129.62,533.39C130.53,536.69 131.02,540.22 131.02,543.16C131.02,544.15 130.96,545.08 130.85,545.91L130.85,545.92L130.79,546.41L130.79,546.4C130.33,550.66 127.76,554.36 123.91,556.32C122.16,557.21 120.32,557.65 118.51,557.65C116.55,557.65 114.62,557.14 112.84,556.12C112.57,555.96 112.31,555.8 112.05,555.62L112.05,555.62C109.74,554.07 108.25,551.62 107.85,548.66C107.76,548.02 107.72,547.4 107.72,546.8C107.72,545.09 108.06,543.56 108.71,542.28C109.36,540.99 110.31,539.94 111.55,539.16C112.8,538.39 114.22,538 115.65,538C117.17,538 118.7,538.45 120.02,539.34C121.27,540.18 122.14,541.59 122.38,543.21C122.43,543.62 122.46,544.01 122.46,544.39C122.46,545.37 122.27,546.23 121.91,546.95C121.56,547.67 121.04,548.24 120.36,548.67C119.66,549.11 118.88,549.32 118.09,549.32C117.25,549.32 116.41,549.08 115.68,548.59C114.8,547.99 114.33,547.03 114.33,546.05C114.33,545.47 114.5,544.88 114.85,544.37L114.85,544.36C115.07,544.03 115.18,543.65 115.18,543.28C115.18,542.66 114.88,542.04 114.32,541.67C113.99,541.44 113.61,541.34 113.24,541.34C112.61,541.34 112,541.64 111.62,542.2C110.83,543.37 110.45,544.72 110.45,546.05C110.45,548.27 111.52,550.47 113.5,551.81C114.88,552.74 116.49,553.21 118.09,553.21C119.59,553.21 121.1,552.8 122.42,551.97C124.96,550.38 126.35,547.57 126.35,544.36C126.35,543.8 126.31,543.23 126.22,542.65C125.83,539.97 124.37,537.59 122.2,536.12C120.22,534.78 117.93,534.11 115.65,534.11C113.51,534.11 111.38,534.7 109.5,535.86C105.85,538.13 103.83,542.18 103.83,546.85C103.83,547.61 103.89,548.39 103.99,549.18C104.54,553.17 106.67,556.69 109.87,558.84C110.21,559.07 110.56,559.29 110.91,559.49L110.91,559.49C113.28,560.85 115.88,561.54 118.5,561.54C120.93,561.54 123.37,560.95 125.67,559.78C130.69,557.23 134.05,552.38 134.66,546.82L134.7,546.38L134.7,546.38C134.84,545.37 134.91,544.28 134.91,543.12C134.91,539.83 134.37,536.03 133.37,532.35L133.37,532.35C132.64,529.77 132.36,527.47 132.36,525.44C132.36,521.64 133.36,518.81 134.38,516.89C134.89,515.93 135.4,515.21 135.8,514.71C135.99,514.46 136.16,514.27 136.28,514.14C136.41,514.01 136.48,513.94 136.51,513.91L136.63,513.79L136.65,513.77L136.66,513.75C137.62,512.63 138.95,511.95 140.43,511.84L140.43,511.84C140.57,511.82 140.72,511.82 140.86,511.82C142.19,511.82 143.45,512.28 144.47,513.16C145.41,513.96 145.89,515.1 145.89,516.25C145.89,517.17 145.59,518.08 144.96,518.83C144.51,519.37 143.73,519.74 142.92,519.76L142.93,519.76L142.84,519.76C142.21,519.76 141.69,519.63 141.3,519.42C140.9,519.2 140.62,518.91 140.44,518.53C140.32,518.27 140.26,517.99 140.26,517.72C140.26,517.28 140.41,516.84 140.71,516.5L140.71,516.5C141.02,516.14 141.17,515.68 141.17,515.24C141.17,514.69 140.94,514.14 140.49,513.76C140.13,513.45 139.67,513.3 139.24,513.3C138.69,513.3 138.14,513.53 137.75,513.97L137.75,513.98C136.84,515.04 136.37,516.37 136.37,517.72C136.37,518.56 136.56,519.4 136.93,520.19C137.44,521.28 138.26,522.15 139.28,522.74C140.31,523.33 141.52,523.64 142.84,523.64L142.99,523.64C144.9,523.61 146.73,522.76 147.94,521.33L147.94,521.33C149.17,519.86 149.78,518.05 149.78,516.26C149.78,514.01 148.83,511.77 146.99,510.2Z" style="fill:rgb(58,89,14);fill-rule:nonzero;"/>
        </g>
        <g>
            <path d="M126.25,485.85C126.25,484.84 125.95,483.83 125.34,482.93C123.76,480.59 121.06,479.06 118.73,478.06C116.41,477.06 114.44,476.62 114.23,476.57C114.1,476.54 113.97,476.53 113.84,476.53C113.29,476.53 112.81,476.77 112.46,477.12C112.11,477.47 111.87,477.95 111.87,478.5C111.87,478.63 111.88,478.76 111.91,478.89L111.91,478.88C111.95,479.07 112.4,481.05 113.39,483.39C114.4,485.72 115.92,488.41 118.27,490C119.17,490.61 120.19,490.91 121.19,490.91C122.49,490.92 123.77,490.4 124.75,489.41L124.27,488.93L124.75,489.41C125.74,488.42 126.26,487.15 126.25,485.85ZM120.44,486.77L120.43,486.77C119.46,486.12 118.59,484.99 117.89,483.75C117.47,483 117.11,482.22 116.81,481.47C117.6,481.79 118.42,482.17 119.18,482.61C120.41,483.31 121.5,484.17 122.11,485.09C122.31,485.39 122.36,485.62 122.37,485.83C122.37,486.15 122.22,486.45 122,486.66C121.79,486.88 121.49,487.03 121.18,487.02C120.97,487.02 120.73,486.97 120.44,486.77Z" style="fill:rgb(58,89,14);fill-rule:nonzero;"/>
            <path d="M114.22,476.57L114.23,476.57L114.22,476.57Z" style="fill:rgb(58,89,14);fill-rule:nonzero;"/>
        </g>
    </g>
    <g transform="matrix(0,1.650789,-0.646559,0,244.65774,-6.810242)">
        <rect x="137.32" y="328.14" width="128.79" height="5.48" style="fill:rgb(58,89,14);"/>
    </g>
    <g transform="matrix(0,1.650789,-0.646559,0,231.280841,-44.829435)">
        <rect x="137.32" y="328.14" width="128.79" height="5.48" style="fill:rgb(58,89,14);"/>
    </g>
    <g transform="matrix(-0,1.650789,0.646559,0,405.720273,-6.810242)">
        <rect x="137.32" y="328.14" width="128.79" height="5.48" style="fill:rgb(58,89,14);"/>
    </g>
    <g transform="matrix(-0,1.650789,0.646559,0,419.097172,-44.829435)">
        <rect x="137.32" y="328.14" width="128.79" height="5.48" style="fill:rgb(58,89,14);"/>
    </g>
    <g transform="matrix(0,-1.650789,-0.646559,-0,244.65774,1009.231587)">
        <rect x="137.32" y="328.14" width="128.79" height="5.48" style="fill:rgb(58,89,14);"/>
    </g>
    <g transform="matrix(0,-1.650789,-0.646559,-0,231.280841,1047.25078)">
        <rect x="137.32" y="328.14" width="128.79" height="5.48" style="fill:rgb(58,89,14);"/>
    </g>
    <g transform="matrix(-0,-1.650789,0.646559,-0,405.720273,1009.231587)">
        <rect x="137.32" y="328.14" width="128.79" height="5.48" style="fill:rgb(58,89,14);"/>
    </g>
    <g transform="matrix(-0,-1.650789,0.646559,-0,419.097172,1047.25078)">
        <rect x="137.32" y="328.14" width="128.79" height="5.48" style="fill:rgb(58,89,14);"/>
    </g>
</svg>
